<?xml version="1.0" standalone="no"?>
<!DOCTYPE svg PUBLIC "-//W3C//DTD SVG 20010904//EN"
 "http://www.w3.org/TR/2001/REC-SVG-20010904/DTD/svg10.dtd">
<svg version="1.0" xmlns="http://www.w3.org/2000/svg"
 width="700.000000pt" height="700.000000pt" viewBox="0 0 700.000000 700.000000"
 preserveAspectRatio="xMidYMid meet">
<metadata>
Created by potrace 1.14, written by Peter Selinger 2001-2017
</metadata>
<g transform="translate(0.000000,700.000000) scale(0.100000,-0.100000)"
fill="#000000" stroke="none">
<path d="M343 3510 c0 -1128 3 -2053 7 -2055 4 -3 18 3 31 14 13 10 60 42 103
72 44 30 134 91 200 137 67 46 164 112 216 148 52 36 145 99 205 141 61 42
169 117 242 167 381 262 625 430 688 473 39 27 129 89 200 138 72 49 171 117
220 151 50 35 128 89 175 121 278 190 640 439 668 460 l33 25 -163 112 c-90
62 -197 136 -238 164 -41 29 -82 57 -90 62 -13 10 -220 152 -260 179 -8 6 -40
28 -70 49 -60 42 -910 629 -1055 729 -49 34 -142 97 -205 139 -63 43 -116 82
-118 86 -2 4 -8 8 -13 8 -5 0 -17 7 -26 15 -10 8 -85 61 -168 117 -82 57 -235
162 -340 234 -104 72 -202 139 -216 148 l-26 16 0 -2050z"/>
<path d="M3675 3505 c0 -1130 2 -2055 5 -2055 3 0 56 35 118 78 153 106 236
163 382 263 69 47 166 113 215 148 50 34 140 96 200 137 104 71 234 161 405
279 41 28 149 103 240 165 91 62 208 143 260 179 52 36 177 122 277 191 338
232 517 355 608 417 49 35 132 91 182 125 51 35 93 65 93 68 0 3 -30 25 -68
50 -37 25 -71 49 -77 53 -5 5 -119 83 -252 175 -134 92 -370 255 -525 362
-155 107 -424 293 -598 412 -173 119 -320 222 -327 227 -7 6 -15 11 -17 11 -3
0 -14 7 -23 15 -10 8 -189 132 -398 276 -209 144 -416 287 -460 317 -187 129
-235 162 -237 162 -2 0 -3 -925 -3 -2055z"/>
</g>
</svg>
